<?xml version="1.0" encoding="utf-8"?>
<svg viewBox="0 0 500 500" xmlns="http://www.w3.org/2000/svg" xmlns:bx="https://boxy-svg.com">
  <circle style="" cx="284.051" cy="295.459" r="103.556"/>
  <path style="fill: rgb(255, 255, 255);" transform="matrix(-0.573637, -0.819109, 0.819109, -0.573637, 57.409486, 1291.991868)" d="M 722.043 683.715 A 73.243 73.243 0 0 1 722.043 826.153 A 108.331 108.331 0 0 0 722.043 683.715 Z" bx:shape="crescent 704.945 754.934 73.243 153 0.799 1@65a3eea1"/>
  <path style="" d="M 320.851 208.586 C 320.851 208.586 330.762 200.106 334.797 197.146 C 338.832 194.186 352.681 194.832 368.412 210.667 C 384.143 226.502 385.294 238.165 382.385 241.288 C 379.476 244.411 370.873 251.534 370.873 251.534 L 320.851 208.586 Z"/>
  <path d="M 604.832 317.493 L 614.085 349.668 L 645.01 336.842 L 625.624 364.137 L 654.934 380.318 L 621.506 382.18 L 627.129 415.184 L 604.832 390.21 L 582.535 415.184 L 588.158 382.18 L 554.73 380.318 L 584.04 364.137 L 564.654 336.842 L 595.579 349.668 Z" style="" transform="matrix(0.869041, -0.49474, 0.49474, 0.869041, -475.001297, 110.956952)" bx:shape="star 604.832 368.883 51.39 51.39 0.415 7 1@f466bc0d"/>
  <path style="stroke: rgb(0, 0, 0); fill: none; stroke-width: 20px;"/>
  <path style="stroke: rgb(0, 0, 0); fill: none; stroke-width: 20px;" d="M 350.24 222.482 C 350.24 222.482 385.868 201.404 387.607 168.292 C 389.346 135.18 346.142 128.192 320.851 146.644 C 295.56 165.096 259.617 157.608 233.65 132.084"/>
</svg>