<?xml version="1.0" encoding="utf-8"?>
<svg viewBox="0 0 500 500" xmlns="http://www.w3.org/2000/svg">
  <path style="stroke-linejoin: round; stroke-width: 17px; stroke-linecap: round; fill: none; stroke: rgb(255, 255, 255);" d="M 405.981 248.369 C 405.981 248.369 419.191 225.699 419.191 200.851 C 419.191 165.841 390.056 129.552 340.627 129.225 C 284.63 128.854 266.08 195.845 265.506 195.845 C 264.932 195.845 252.311 128.136 188.423 128.86 C 124.535 129.584 113.267 187.231 113.267 200.953 C 113.267 282.29 221.335 361.5 265.107 393.585 C 287.583 377.862 303.811 363.821 303.811 363.821"/>
  <path style="stroke-width: 17px; stroke-linecap: round; fill: none; stroke: rgb(255, 255, 255);" d="M 207.379 280.942 L 226.385 280.942 L 244.992 265.353 C 244.992 265.353 264.129 313.217 264.245 313.055 C 264.361 312.893 301.76 248.837 301.718 248.914 C 301.676 248.991 341.381 352.245 341.34 352.285 C 341.299 352.325 379.008 281.519 379.008 281.519 L 419.191 281.11"/>
</svg>