<?xml version="1.0" encoding="utf-8"?>
<svg viewBox="0 0 500 500" xmlns="http://www.w3.org/2000/svg">
  <path style="" d="M 61.77 109.543"/>
  <path style="fill: rgb(255, 255, 255); stroke-linejoin: round; stroke-linecap: round; stroke-width: 33px; stroke: rgb(255, 255, 255);" d="M 245.933 119.057 C 245.933 119.057 124.598 258.922 124.519 258.96 C 124.44 258.998 244.895 402.393 244.893 402.431 C 244.891 402.469 359.503 256.918 359.503 256.918 C 359.503 256.918 247.356 119.587 245.933 119.057 Z"/>
  <path style="stroke: rgb(0, 0, 0); fill: rgb(255, 255, 255); stroke-linejoin: round; stroke-linecap: round; stroke-width: 14px;" d="M 245.933 119.057 C 245.933 119.057 124.598 258.922 124.519 258.96 C 124.44 258.998 244.895 402.393 244.893 402.431 C 244.891 402.469 359.503 256.918 359.503 256.918 C 359.503 256.918 247.356 119.587 245.933 119.057 Z"/>
  <g transform="matrix(1, 0, 0, 1, 11.407482, 0)">
    <path style="stroke: rgb(255, 255, 255); stroke-linecap: round; stroke-linejoin: round; stroke-width: 14px;" d="M 251.816 249.176 C 251.816 249.176 251.847 262.434 251.847 262.394 C 251.847 262.354 360.816 260.085 360.816 260.085 L 357.393 273.234 C 357.393 273.234 404.875 255.331 404.913 255.331 C 404.951 255.331 357.28 241.404 357.28 241.404 L 361.097 253.97 C 361.097 253.97 251.998 249.217 251.816 249.176 Z"/>
    <path style="stroke: rgb(255, 255, 255); stroke-linecap: round; stroke-linejoin: round; stroke-width: 14px;" d="M 237.857 230.982 L 251.539 245.565 C 251.539 245.565 286.844 247.392 286.766 247.392 C 286.688 247.392 275.233 231.828 275.194 231.828 C 275.155 231.828 267.523 231.729 267.484 231.729 C 267.445 231.729 270.511 237.318 270.472 237.279 C 270.433 237.24 265.445 237.508 265.445 237.508 L 261.192 232.56 C 261.192 232.56 253 231.729 252.921 231.804 C 252.842 231.879 258.187 237.52 258.187 237.52 C 258.187 237.52 253.508 237.818 253.468 237.818 C 253.428 237.818 247.604 231.734 247.604 231.734 C 247.604 231.734 237.842 231.938 237.857 230.982 Z"/>
    <path style="stroke: rgb(255, 255, 255); stroke-linecap: round; stroke-linejoin: round; stroke-width: 14px;" d="M 238.704 282.777 L 252.386 266.79 C 252.386 266.79 286.844 266.631 286.766 266.631 C 286.688 266.631 276.08 281.851 276.041 281.851 C 276.002 281.851 268.37 281.959 268.331 281.959 C 268.292 281.959 271.358 275.831 271.319 275.874 C 271.28 275.917 266.292 275.623 266.292 275.623 L 262.039 281.047 C 262.039 281.047 253.847 281.959 253.768 281.876 C 253.689 281.794 259.034 275.61 259.034 275.61 C 259.034 275.61 254.355 275.283 254.315 275.283 C 254.275 275.283 248.451 281.953 248.451 281.953 C 248.451 281.953 238.689 281.73 238.704 282.777 Z"/>
  </g>
  <g transform="matrix(0.954531, -0.298116, 0.298116, 0.954531, -115.727364, 61.335201)">
    <path style="stroke: rgb(255, 255, 255); stroke-linecap: round; stroke-linejoin: round; stroke-width: 14px;" d="M 251.816 249.176 C 251.816 249.176 251.847 262.434 251.847 262.394 C 251.847 262.354 360.816 260.085 360.816 260.085 L 357.393 273.234 C 357.393 273.234 404.875 255.331 404.913 255.331 C 404.951 255.331 357.28 241.404 357.28 241.404 L 361.097 253.97 C 361.097 253.97 251.998 249.217 251.816 249.176 Z"/>
    <path style="stroke: rgb(255, 255, 255); stroke-linecap: round; stroke-linejoin: round; stroke-width: 14px;" d="M 237.857 230.982 L 251.539 245.565 C 251.539 245.565 286.844 247.392 286.766 247.392 C 286.688 247.392 275.233 231.828 275.194 231.828 C 275.155 231.828 267.523 231.729 267.484 231.729 C 267.445 231.729 270.511 237.318 270.472 237.279 C 270.433 237.24 265.445 237.508 265.445 237.508 L 261.192 232.56 C 261.192 232.56 253 231.729 252.921 231.804 C 252.842 231.879 258.187 237.52 258.187 237.52 C 258.187 237.52 253.508 237.818 253.468 237.818 C 253.428 237.818 247.604 231.734 247.604 231.734 C 247.604 231.734 237.842 231.938 237.857 230.982 Z"/>
    <path style="stroke: rgb(255, 255, 255); stroke-linecap: round; stroke-linejoin: round; stroke-width: 14px;" d="M 238.704 282.777 L 252.386 266.79 C 252.386 266.79 286.844 266.631 286.766 266.631 C 286.688 266.631 276.08 281.851 276.041 281.851 C 276.002 281.851 268.37 281.959 268.331 281.959 C 268.292 281.959 271.358 275.831 271.319 275.874 C 271.28 275.917 266.292 275.623 266.292 275.623 L 262.039 281.047 C 262.039 281.047 253.847 281.959 253.768 281.876 C 253.689 281.794 259.034 275.61 259.034 275.61 C 259.034 275.61 254.355 275.283 254.315 275.283 C 254.275 275.283 248.451 281.953 248.451 281.953 C 248.451 281.953 238.689 281.73 238.704 282.777 Z"/>
  </g>
  <g transform="matrix(0.929425, 0.369017, -0.369017, 0.929425, 68.402962, -36.828407)">
    <path style="stroke: rgb(255, 255, 255); stroke-linecap: round; stroke-linejoin: round; stroke-width: 14px;" d="M 251.816 249.176 C 251.816 249.176 251.847 262.434 251.847 262.394 C 251.847 262.354 360.816 260.085 360.816 260.085 L 357.393 273.234 C 357.393 273.234 404.875 255.331 404.913 255.331 C 404.951 255.331 357.28 241.404 357.28 241.404 L 361.097 253.97 C 361.097 253.97 251.998 249.217 251.816 249.176 Z"/>
    <path style="stroke: rgb(255, 255, 255); stroke-linecap: round; stroke-linejoin: round; stroke-width: 14px;" d="M 237.857 230.982 L 251.539 245.565 C 251.539 245.565 286.844 247.392 286.766 247.392 C 286.688 247.392 275.233 231.828 275.194 231.828 C 275.155 231.828 267.523 231.729 267.484 231.729 C 267.445 231.729 270.511 237.318 270.472 237.279 C 270.433 237.24 265.445 237.508 265.445 237.508 L 261.192 232.56 C 261.192 232.56 253 231.729 252.921 231.804 C 252.842 231.879 258.187 237.52 258.187 237.52 C 258.187 237.52 253.508 237.818 253.468 237.818 C 253.428 237.818 247.604 231.734 247.604 231.734 C 247.604 231.734 237.842 231.938 237.857 230.982 Z"/>
    <path style="stroke: rgb(255, 255, 255); stroke-linecap: round; stroke-linejoin: round; stroke-width: 14px;" d="M 238.704 282.777 L 252.386 266.79 C 252.386 266.79 286.844 266.631 286.766 266.631 C 286.688 266.631 276.08 281.851 276.041 281.851 C 276.002 281.851 268.37 281.959 268.331 281.959 C 268.292 281.959 271.358 275.831 271.319 275.874 C 271.28 275.917 266.292 275.623 266.292 275.623 L 262.039 281.047 C 262.039 281.047 253.847 281.959 253.768 281.876 C 253.689 281.794 259.034 275.61 259.034 275.61 C 259.034 275.61 254.355 275.283 254.315 275.283 C 254.275 275.283 248.451 281.953 248.451 281.953 C 248.451 281.953 238.689 281.73 238.704 282.777 Z"/>
  </g>
  <g transform="matrix(1, 0, 0, 1, 11.407466, -0.000018)">
    <path style="" d="M 251.816 249.176 C 251.816 249.176 251.847 262.434 251.847 262.394 C 251.847 262.354 360.816 260.085 360.816 260.085 L 357.393 273.234 C 357.393 273.234 404.875 255.331 404.913 255.331 C 404.951 255.331 357.28 241.404 357.28 241.404 L 361.097 253.97 C 361.097 253.97 251.998 249.217 251.816 249.176 Z"/>
    <path style="" d="M 237.857 230.982 L 251.539 245.565 C 251.539 245.565 286.844 247.392 286.766 247.392 C 286.688 247.392 275.233 231.828 275.194 231.828 C 275.155 231.828 267.523 231.729 267.484 231.729 C 267.445 231.729 270.511 237.318 270.472 237.279 C 270.433 237.24 265.445 237.508 265.445 237.508 L 261.192 232.56 C 261.192 232.56 253 231.729 252.921 231.804 C 252.842 231.879 258.187 237.52 258.187 237.52 C 258.187 237.52 253.508 237.818 253.468 237.818 C 253.428 237.818 247.604 231.734 247.604 231.734 C 247.604 231.734 237.842 231.938 237.857 230.982 Z"/>
    <path style="" d="M 238.704 282.777 L 252.386 266.79 C 252.386 266.79 286.844 266.631 286.766 266.631 C 286.688 266.631 276.08 281.851 276.041 281.851 C 276.002 281.851 268.37 281.959 268.331 281.959 C 268.292 281.959 271.358 275.831 271.319 275.874 C 271.28 275.917 266.292 275.623 266.292 275.623 L 262.039 281.047 C 262.039 281.047 253.847 281.959 253.768 281.876 C 253.689 281.794 259.034 275.61 259.034 275.61 C 259.034 275.61 254.355 275.283 254.315 275.283 C 254.275 275.283 248.451 281.953 248.451 281.953 C 248.451 281.953 238.689 281.73 238.704 282.777 Z"/>
  </g>
  <g transform="matrix(0.954531, -0.298116, 0.298116, 0.954531, -115.727379, 61.335186)">
    <path style="" d="M 251.816 249.176 C 251.816 249.176 251.847 262.434 251.847 262.394 C 251.847 262.354 360.816 260.085 360.816 260.085 L 357.393 273.234 C 357.393 273.234 404.875 255.331 404.913 255.331 C 404.951 255.331 357.28 241.404 357.28 241.404 L 361.097 253.97 C 361.097 253.97 251.998 249.217 251.816 249.176 Z"/>
    <path style="" d="M 237.857 230.982 L 251.539 245.565 C 251.539 245.565 286.844 247.392 286.766 247.392 C 286.688 247.392 275.233 231.828 275.194 231.828 C 275.155 231.828 267.523 231.729 267.484 231.729 C 267.445 231.729 270.511 237.318 270.472 237.279 C 270.433 237.24 265.445 237.508 265.445 237.508 L 261.192 232.56 C 261.192 232.56 253 231.729 252.921 231.804 C 252.842 231.879 258.187 237.52 258.187 237.52 C 258.187 237.52 253.508 237.818 253.468 237.818 C 253.428 237.818 247.604 231.734 247.604 231.734 C 247.604 231.734 237.842 231.938 237.857 230.982 Z"/>
    <path style="" d="M 238.704 282.777 L 252.386 266.79 C 252.386 266.79 286.844 266.631 286.766 266.631 C 286.688 266.631 276.08 281.851 276.041 281.851 C 276.002 281.851 268.37 281.959 268.331 281.959 C 268.292 281.959 271.358 275.831 271.319 275.874 C 271.28 275.917 266.292 275.623 266.292 275.623 L 262.039 281.047 C 262.039 281.047 253.847 281.959 253.768 281.876 C 253.689 281.794 259.034 275.61 259.034 275.61 C 259.034 275.61 254.355 275.283 254.315 275.283 C 254.275 275.283 248.451 281.953 248.451 281.953 C 248.451 281.953 238.689 281.73 238.704 282.777 Z"/>
  </g>
  <g transform="matrix(0.929425, 0.369017, -0.369017, 0.929425, 68.402946, -36.828426)">
    <path style="" d="M 251.816 249.176 C 251.816 249.176 251.847 262.434 251.847 262.394 C 251.847 262.354 360.816 260.085 360.816 260.085 L 357.393 273.234 C 357.393 273.234 404.875 255.331 404.913 255.331 C 404.951 255.331 357.28 241.404 357.28 241.404 L 361.097 253.97 C 361.097 253.97 251.998 249.217 251.816 249.176 Z"/>
    <path style="" d="M 237.857 230.982 L 251.539 245.565 C 251.539 245.565 286.844 247.392 286.766 247.392 C 286.688 247.392 275.233 231.828 275.194 231.828 C 275.155 231.828 267.523 231.729 267.484 231.729 C 267.445 231.729 270.511 237.318 270.472 237.279 C 270.433 237.24 265.445 237.508 265.445 237.508 L 261.192 232.56 C 261.192 232.56 253 231.729 252.921 231.804 C 252.842 231.879 258.187 237.52 258.187 237.52 C 258.187 237.52 253.508 237.818 253.468 237.818 C 253.428 237.818 247.604 231.734 247.604 231.734 C 247.604 231.734 237.842 231.938 237.857 230.982 Z"/>
    <path style="" d="M 238.704 282.777 L 252.386 266.79 C 252.386 266.79 286.844 266.631 286.766 266.631 C 286.688 266.631 276.08 281.851 276.041 281.851 C 276.002 281.851 268.37 281.959 268.331 281.959 C 268.292 281.959 271.358 275.831 271.319 275.874 C 271.28 275.917 266.292 275.623 266.292 275.623 L 262.039 281.047 C 262.039 281.047 253.847 281.959 253.768 281.876 C 253.689 281.794 259.034 275.61 259.034 275.61 C 259.034 275.61 254.355 275.283 254.315 275.283 C 254.275 275.283 248.451 281.953 248.451 281.953 C 248.451 281.953 238.689 281.73 238.704 282.777 Z"/>
  </g>
</svg>